<svg width="120" height="32" viewBox="0 0 120 32" fill="none" xmlns="http://www.w3.org/2000/svg">
<path d="M12.8902 0H0V31.2L12.8902 0Z" fill="#E73D1C"/>
<path d="M21.9596 0H34.833V31.2L21.9596 0Z" fill="#E73D1C"/>
<path d="M25.6293 31.2L17.4249 11.4992L11.7901 24.9277H17.7944L20.2465 31.2H25.6293Z" fill="#E73D1C"/>
<path fill-rule="evenodd" clip-rule="evenodd" d="M68.2284 25.1445C69.7988 25.1445 71.4699 24.8556 73.1662 24.1161C73.3005 24.0651 73.3257 24.0057 73.3257 23.8782C73.2753 23.4022 73.2166 22.7138 73.2166 22.1869V6.20865C73.2166 6.10666 73.2166 6.05566 73.0906 6.05566H70.2438C70.1347 6.05566 70.0843 6.10666 70.0843 6.24264V11.6565C69.6392 11.6055 69.3285 11.58 68.959 11.58C64.3655 11.58 61.544 14.6482 61.544 18.4813C61.544 22.9263 64.4411 25.1445 68.2284 25.1445ZM70.0843 22.1869C69.614 22.3398 69.0934 22.3993 68.5643 22.3993C66.4817 22.3993 64.777 21.2095 64.777 18.3198C64.777 15.7616 66.5321 14.2487 68.8582 14.2487C69.3285 14.2487 69.74 14.2997 70.0843 14.4357V22.1869ZM55.6043 20.3086L57.1242 24.7196C57.1746 24.8301 57.2502 24.8811 57.3846 24.8811H60.3069C60.4665 24.8811 60.4917 24.8046 60.4665 24.6431L54.4286 7.67049C54.4034 7.53451 54.3782 7.50901 54.2439 7.50901H50.6162C50.5154 7.50901 50.4566 7.5855 50.4566 7.69599C50.4062 8.58839 50.3306 8.86036 50.2215 9.12383L44.8386 24.6176C44.8135 24.8046 44.8722 24.8811 45.0234 24.8811H47.635C47.7946 24.8811 47.8702 24.8301 47.9289 24.6686L49.3649 20.3086H55.6043ZM50.5224 16.4334L50.5227 16.4327C51.2517 14.214 52.0828 11.6848 52.4468 10.1522H52.472C52.8389 11.4577 53.5559 13.6661 54.1414 15.4694L54.1414 15.4695C54.3869 16.2255 54.6092 16.9102 54.7729 17.4274H50.1963C50.3012 17.1065 50.4106 16.7736 50.5224 16.4334ZM76.0593 18.3793C76.0593 14.6227 78.4862 11.5801 82.4078 11.5801C86.4302 11.5801 88.622 14.6737 88.622 18.2943C88.622 22.3993 86.0356 25.1445 82.349 25.1445C77.9907 25.1445 76.0593 21.7364 76.0593 18.3793ZM85.4057 18.3793C85.4057 16.178 84.4652 14.2488 82.2483 14.2488C80.4932 14.2488 79.242 15.8126 79.242 18.3198C79.242 20.759 80.4176 22.4503 82.4078 22.4503C84.0202 22.4503 85.4057 21.099 85.4057 18.3793ZM91.5649 6.05566C91.4557 6.05566 91.3801 6.10666 91.3801 6.24264V24.3286C91.3801 24.4051 91.4557 24.5411 91.5649 24.5666C92.8161 24.9575 94.1261 25.1445 95.4781 25.1445C99.3494 25.1445 103.111 22.7138 103.111 17.8183C103.111 14.2742 100.71 11.58 96.9477 11.58C96.0827 11.58 95.2766 11.716 94.5712 11.954L94.5376 6.26814C94.5376 6.08116 94.4872 6.05566 94.3025 6.05566H91.5649ZM99.8952 18.1413C99.8952 21.0735 97.9134 22.4503 95.772 22.4503C95.327 22.4503 94.9323 22.4248 94.5712 22.3143V14.5972C94.9827 14.4357 95.4781 14.2997 96.3934 14.2997C98.4592 14.2997 99.8952 15.6256 99.8952 18.1413ZM116.423 18.9827C116.062 19.0677 115.012 19.0932 113.736 19.0932H108.428C108.504 20.9375 109.713 22.4248 112.375 22.4248C113.551 22.4248 114.626 22.2124 115.617 21.7874C115.692 21.7364 115.768 21.7619 115.768 21.8894V24.0906C115.768 24.2436 115.717 24.3286 115.617 24.3796C114.626 24.8556 113.475 25.1445 111.695 25.1445C106.942 25.1445 105.246 21.7619 105.246 18.5068C105.246 14.8352 107.437 11.5801 111.384 11.5801C115.247 11.5801 116.742 14.6482 116.742 17.1639C116.742 17.9033 116.708 18.5068 116.633 18.7957C116.608 18.9062 116.557 18.9572 116.423 18.9827ZM111.25 14.1213C109.444 14.1213 108.638 15.5236 108.428 16.8155H112.325C113.316 16.8155 113.652 16.8155 113.761 16.79V16.5775C113.761 15.8126 113.24 14.1213 111.25 14.1213Z" fill="#E73D1C"/>
</svg>
