<svg width="120" height="40" viewBox="0 0 120 40" fill="none" xmlns="http://www.w3.org/2000/svg">
<g clip-path="url(#clip0_411_5839)">
<path d="M13.333 19.9997C13.333 18.2316 14.0354 16.5359 15.2856 15.2856C16.5359 14.0354 18.2316 13.333 19.9997 13.333C21.7678 13.333 23.4635 14.0354 24.7137 15.2856C25.964 16.5359 26.6663 18.2316 26.6663 19.9997C26.6663 21.7678 25.964 23.4635 24.7137 24.7137C23.4635 25.964 21.7678 26.6663 19.9997 26.6663C18.2316 26.6663 16.5359 25.964 15.2856 24.7137C14.0354 23.4635 13.333 21.7678 13.333 19.9997Z" fill="#1ABCFE"/>
<path d="M0 33.3337C0 31.5655 0.702379 29.8699 1.95262 28.6196C3.20286 27.3694 4.89856 26.667 6.66667 26.667H13.3333V33.3337C13.3333 35.1018 12.631 36.7975 11.3807 38.0477C10.1305 39.2979 8.43478 40.0003 6.66667 40.0003C4.89856 40.0003 3.20286 39.2979 1.95262 38.0477C0.702379 36.7975 0 35.1018 0 33.3337H0Z" fill="#0ACF83"/>
<path d="M13.333 0V13.3333H19.9997C21.7678 13.3333 23.4635 12.631 24.7137 11.3807C25.964 10.1305 26.6663 8.43478 26.6663 6.66667C26.6663 4.89856 25.964 3.20286 24.7137 1.95262C23.4635 0.702379 21.7678 0 19.9997 0L13.333 0Z" fill="#FF7262"/>
<path d="M0 6.66667C0 8.43478 0.702379 10.1305 1.95262 11.3807C3.20286 12.631 4.89856 13.3333 6.66667 13.3333H13.3333V0H6.66667C4.89856 0 3.20286 0.702379 1.95262 1.95262C0.702379 3.20286 0 4.89856 0 6.66667H0Z" fill="#F24E1E"/>
<path d="M0 19.9997C0 21.7678 0.702379 23.4635 1.95262 24.7137C3.20286 25.964 4.89856 26.6663 6.66667 26.6663H13.3333V13.333H6.66667C4.89856 13.333 3.20286 14.0354 1.95262 15.2856C0.702379 16.5359 0 18.2316 0 19.9997H0Z" fill="#A259FF"/>
</g>
<g clip-path="url(#clip1_411_5839)">
<path d="M40.4658 8.33301V26.4253L42.7928 26.4343V17.8189H48.3864V15.5394H42.7838V10.6035H50.0779V8.33301H40.4658ZM54.2485 12.0125C54.652 12.0125 55.039 11.8518 55.3243 11.5656C55.6096 11.2795 55.7699 10.8915 55.7699 10.4869C55.7699 10.0822 55.6096 9.69418 55.3243 9.40806C55.039 9.12195 54.652 8.96121 54.2485 8.96121C53.845 8.96121 53.458 9.12195 53.1726 9.40806C52.8873 9.69418 52.727 10.0822 52.727 10.4869C52.727 10.8915 52.8873 11.2795 53.1726 11.5656C53.458 11.8518 53.845 12.0125 54.2485 12.0125ZM53.076 14.283V26.4343H55.403V14.283H53.076Z" fill="black"/>
<path fill-rule="evenodd" clip-rule="evenodd" d="M64.0035 13.9326C60.9248 13.9326 58.7769 16.5442 58.7769 19.6493C58.7769 22.7544 60.9248 25.366 64.0035 25.366C65.4176 25.366 66.5811 24.8275 67.4313 23.9301V25.5454C67.4372 26.0281 67.3476 26.5072 67.1678 26.9549C66.988 27.4027 66.7214 27.8102 66.3835 28.1541C66.0456 28.4979 65.6431 28.7711 65.1993 28.958C64.7554 29.1449 64.2791 29.2417 63.7977 29.2429C63.0548 29.2429 62.321 28.9557 61.7392 28.5429L60.5758 30.5621C61.4754 31.1452 62.5153 31.4741 63.5858 31.5139C64.6563 31.5538 65.7177 31.3032 66.658 30.7885C67.5983 30.2739 68.3826 29.5143 68.9283 28.5899C69.4739 27.6656 69.7607 26.6106 69.7582 25.5365V14.2916H67.4313V15.3775C66.5811 14.4801 65.4176 13.9416 64.0035 13.9416V13.9326ZM61.0948 19.6493C61.0948 17.7198 62.5626 16.2031 64.2631 16.2031C65.9635 16.2031 67.4223 17.7288 67.4223 19.6493C67.4223 21.5788 65.9546 23.0865 64.2631 23.0865C62.5626 23.0865 61.0948 21.5788 61.0948 19.6493Z" fill="black"/>
<path d="M78.1172 16.2036C77.4517 16.2154 76.8176 16.4894 76.352 16.9664C75.8864 17.4433 75.6267 18.0849 75.6292 18.7523V26.4344H73.3022V14.2831H75.6292V15.3959C75.9773 14.9333 76.4296 14.5596 76.949 14.3054C77.4685 14.0512 78.0405 13.9236 78.6184 13.9331C80.2473 13.9331 81.5002 14.7408 82.2162 15.9793C82.6157 15.3584 83.1624 14.8465 83.8074 14.4895C84.4524 14.1324 85.1757 13.9412 85.9125 13.9331C88.5527 13.9331 90.2084 16.069 90.2084 18.7164V26.4344H87.8993V18.7434C87.9018 18.0759 87.6421 17.4344 87.1765 16.9574C86.7109 16.4804 86.0768 16.2064 85.4113 16.1946C84.7458 16.2064 84.1117 16.4804 83.6461 16.9574C83.1805 17.4344 82.9208 18.0759 82.9233 18.7434V26.4254H80.5963V18.7434C80.5988 18.0775 80.3404 17.4372 79.8767 16.9605C79.413 16.4838 78.7812 16.2088 78.1172 16.1946V16.2036Z" fill="black"/>
<path fill-rule="evenodd" clip-rule="evenodd" d="M102.586 15.6648C102.057 15.1123 101.422 14.6737 100.719 14.3759C100.016 14.0781 99.2591 13.9273 98.4957 13.9328C95.0411 13.9328 92.5889 16.8584 92.5889 20.3584C92.5889 23.8584 95.0411 26.784 98.4957 26.784C99.2589 26.7879 100.015 26.6364 100.718 26.3387C101.421 26.041 102.056 25.6032 102.586 25.052V26.434H104.904V14.2828H102.577V15.6648H102.586ZM94.9069 20.3584C94.9069 18.043 96.6789 16.2033 98.7463 16.2033C100.805 16.2033 102.586 18.043 102.586 20.3584C102.586 22.6738 100.814 24.5046 98.7463 24.5046C96.6879 24.5046 94.9069 22.6738 94.9069 20.3584Z" fill="black"/>
</g>
<defs>
<clipPath id="clip0_411_5839">
<rect width="26.6667" height="40" fill="white"/>
</clipPath>
<clipPath id="clip1_411_5839">
<rect width="65.3333" height="23.3333" fill="white" transform="translate(40 8.33301)"/>
</clipPath>
</defs>
</svg>
