<svg width="24" height="24" viewBox="0 0 24 24" fill="none" xmlns="http://www.w3.org/2000/svg">
<path d="M14.75 7.45999L12 3.92999L13.97 3.53999L16.71 7.06999L14.75 7.45999ZM21.62 6.09999L20.84 2.17999L16.91 2.95999L19.65 6.49999L21.62 6.09999ZM11.81 8.04999L9.07001 4.49999L7.10001 4.90999L9.85001 8.43999L11.81 8.04999ZM4.16001 5.49999L3.18001 5.68999C2.92241 5.74079 2.67737 5.84194 2.45894 5.98764C2.24051 6.13334 2.05299 6.32072 1.90713 6.53904C1.76127 6.75737 1.65994 7.00234 1.60896 7.2599C1.55797 7.51747 1.55833 7.78257 1.61001 8.03999L2.00001 9.99999L6.90001 9.02999L4.16001 5.49999ZM4.00001 20V12H20V13.09C20.72 13.21 21.39 13.46 22 13.81V9.99999H2.00001V20C2.00001 20.5304 2.21073 21.0391 2.5858 21.4142C2.96087 21.7893 3.46958 22 4.00001 22H13.81C13.46 21.39 13.22 20.72 13.09 20H4.00001ZM21.34 15.84L17.75 19.43L16.16 17.84L15 19L17.75 22L22.5 17.25L21.34 15.84Z" fill="currentColor"/>
</svg>
